<?xml version="1.0" encoding="UTF-8" standalone="no"?>
<!-- Generator: Bez 1.0.2u (15139) - http://www.juicybitssoftware.com/bez -->

<svg
   xmlns:dc="http://purl.org/dc/elements/1.1/"
   xmlns:cc="http://creativecommons.org/ns#"
   xmlns:rdf="http://www.w3.org/1999/02/22-rdf-syntax-ns#"
   xmlns:svg="http://www.w3.org/2000/svg"
   xmlns="http://www.w3.org/2000/svg"
   xmlns:sodipodi="http://sodipodi.sourceforge.net/DTD/sodipodi-0.dtd"
   xmlns:inkscape="http://www.inkscape.org/namespaces/inkscape"
   width="75.0"
   height="380.0"
   version="1.1"
   id="svg2"
   inkscape:version="0.91 r13725"
   sodipodi:docname="ALingADing.svg">
  <metadata
     id="metadata102">
    <rdf:RDF>
      <cc:Work
         rdf:about="">
        <dc:format>image/svg+xml</dc:format>
        <dc:type
           rdf:resource="http://purl.org/dc/dcmitype/StillImage" />
      </cc:Work>
    </rdf:RDF>
  </metadata>
  <defs
     id="defs100" />
  <sodipodi:namedview
     pagecolor="#ffffff"
     bordercolor="#666666"
     borderopacity="1"
     objecttolerance="10"
     gridtolerance="10"
     guidetolerance="10"
     inkscape:pageopacity="0"
     inkscape:pageshadow="2"
     inkscape:window-width="1144"
     inkscape:window-height="906"
     id="namedview98"
     showgrid="false"
     inkscape:zoom="2.4842105"
     inkscape:cx="69.701778"
     inkscape:cy="181.20381"
     inkscape:window-x="0"
     inkscape:window-y="0"
     inkscape:window-maximized="0"
     inkscape:current-layer="layer2" />
  <title
     id="title4">Alingading Panel</title>
  <desc
     id="desc6">Created with Bez</desc>
  <g
     inkscape:groupmode="layer"
     id="layer2"
     inkscape:label="Layer 2"
     style="display:inline">
    <rect
       style="fill:#acadd4;fill-opacity:1;fill-rule:evenodd;stroke:none;stroke-width:3;stroke-linejoin:round;stroke-miterlimit:4;stroke-dasharray:none;stroke-opacity:1"
       id="rect4250"
       width="76.283638"
       height="381.41818"
       x="0.56928086"
       y="-0.84891111" />
  </g>
  <g
     inkscape:groupmode="layer"
     id="layer1"
     inkscape:label="Layer 1"
     style="display:inline">
    <path
       style=""
       id="Path"
       fill="none"
       stroke="#000"
       stroke-width="1.0"
       d="M31.0,161.0" />
    <path
       style=""
       id="path58"
       fill="none"
       stroke="#000"
       stroke-width="1.0"
       d="M30.0,152.0" />
    <path
       style=""
       id="path60"
       fill="none"
       stroke="#000"
       stroke-width="1.0"
       d="M41.0,162.0" />
    <path
       style=""
       id="path62"
       fill="none"
       stroke="#000"
       stroke-width="1.0"
       d="M38.0,156.0" />
    <path
       style=""
       id="Path-4"
       fill="none"
       stroke="#000"
       stroke-width="1.0"
       d="M30.0,149.0" />
    <path
       style=""
       id="Path-5"
       fill="none"
       stroke="#000"
       stroke-width="1.0"
       d="M34.0,167.0" />
    <path
       style=""
       id="Path-6"
       fill="none"
       stroke="#000"
       stroke-width="1.0"
       d="M53.0,186.0" />
    <path
       style=""
       id="Path-7"
       fill="none"
       stroke="#000"
       stroke-width="1.0"
       d="M9.5,243.4 C9.5,243.4 9.3,243.7 9.2,244.0 C9.2,244.4 9.2,244.7 9.2,244.8 C9.2,245.0 9.2,245.0 9.2,244.6 C9.3,244.2 9.5,243.4 9.9,241.9 C10.3,240.3 10.9,237.9 11.9,234.3 C12.9,230.8 14.0,226.7 15.1,223.8 C16.3,220.9 17.2,219.6 17.8,219.3 C18.4,219.0 18.5,219.5 18.6,221.4 C18.7,223.3 18.7,226.4 18.6,229.7 C18.5,233.0 18.4,236.3 18.1,238.8 C17.9,241.3 17.6,242.9 17.3,244.0 C17.1,245.2 16.9,245.8 16.8,246.1 C16.6,246.3 16.4,246.3 16.2,245.8 C16.0,245.3 15.5,244.5 15.1,243.5 C14.7,242.6 14.2,241.6 13.7,241.0 C13.2,240.5 12.7,240.0 12.2,239.7 C11.6,239.3 10.9,239.2 10.5,239.1 C10.1,239.0 10.1,239.0 10.1,239.0 C10.0,239.0 10.3,239.0 10.7,239.2 C11.1,239.3 11.9,239.7 12.9,239.9 C13.9,240.2 15.0,240.3 16.0,240.3 C16.9,240.3 17.9,240.0 18.6,239.7 C19.4,239.3 19.8,239.2 20.2,238.9 C20.5,238.7 20.8,238.5 20.8,238.5" />
    <path
       style=""
       id="Path-8"
       fill="none"
       stroke="#000"
       stroke-width="1.0"
       d="M30.7,228.0 C30.7,228.0 30.7,227.7 30.8,227.3 C31.0,226.9 31.2,226.6 31.2,226.6 C31.3,226.6 31.3,227.1 31.2,228.1 C31.2,229.2 30.8,230.8 29.9,233.2 C29.1,235.6 28.1,238.4 26.9,241.2 C25.8,244.0 25.3,245.7 25.2,246.5 C25.0,247.3 25.5,247.4 26.4,247.0 C27.3,246.6 28.4,245.8 29.5,245.0 C30.5,244.2 31.3,243.5 32.0,243.1 C32.6,242.7 33.1,242.6 33.4,242.4 C33.7,242.3 33.9,242.3 34.0,242.3 C34.1,242.3 34.1,242.4 34.1,242.6 C34.1,242.7 33.9,242.9 33.8,243.0" />
    <path
       style=""
       id="Path-9"
       fill="none"
       stroke="#000"
       stroke-width="1.0"
       d="M35.2,238.5 C35.2,238.5 35.0,238.5 35.0,238.6 C35.0,238.7 35.0,238.9 35.0,239.6 C35.0,240.3 34.7,241.6 34.2,243.0 C33.7,244.4 33.3,245.5 33.3,246.2 C33.3,247.1 33.3,247.1 33.3,247.1" />
    <path
       style=""
       id="Path-10"
       fill="none"
       stroke="#000"
       stroke-width="1.0"
       d="M38.6,238.9 C38.6,238.9 38.6,239.0 38.4,239.4 C38.3,239.8 38.1,240.3 37.9,241.0 C37.8,241.8 37.8,242.3 37.9,242.7 C38.1,243.1 38.4,243.2 38.8,243.3 C39.1,243.4 39.2,243.2 39.6,242.9 C39.9,242.6 40.0,242.3 40.4,241.9 C40.7,241.4 41.0,241.0 41.3,240.5 C41.7,240.0 42.0,239.8 42.1,239.8 C42.1,239.8 42.3,239.8 42.5,240.1 C42.6,240.3 42.8,240.6 43.0,241.0 C43.3,241.3 43.6,241.6 44.0,241.8 C44.4,241.9 44.7,241.9 45.1,241.9 C45.5,241.9 45.9,241.8 46.1,241.4 C46.4,241.0 46.7,240.8 46.8,240.6 C47.0,240.5 47.2,240.5 47.5,240.6 C47.8,240.8 48.3,241.1 48.8,241.5 C49.3,241.9 49.7,242.6 49.9,243.9 C50.1,245.2 49.7,247.1 48.9,249.4 C48.0,251.8 46.8,253.7 45.5,255.2 C44.1,256.6 43.0,257.5 42.3,257.5 C41.7,257.5 41.2,256.6 41.1,255.3 C41.0,253.9 41.8,252.0 43.3,249.7 C44.7,247.4 47.0,245.2 49.7,243.4 C52.3,241.6 55.1,240.3 57.2,239.7 C59.3,239.2 60.9,239.2 61.9,239.3 C62.8,239.5 63.3,239.7 63.4,239.7 C63.5,239.8 63.5,239.8 63.5,239.8" />
    <path
       style=""
       id="Path-11"
       fill="none"
       stroke="#000"
       stroke-width="1.0"
       d="M14.2,272.7 C14.2,272.7 14.0,273.0 13.9,273.7 C13.7,274.4 13.5,275.4 13.2,276.9 C12.9,278.3 12.4,279.8 12.1,280.6 C11.8,281.4 11.8,281.7 11.9,281.3 C12.1,280.9 12.7,279.6 13.9,276.9 C15.1,274.3 16.9,270.5 18.8,266.4 C20.6,262.3 22.4,258.9 23.6,257.0 C24.8,255.0 25.7,254.4 26.0,255.3 C26.3,256.2 26.3,258.6 26.1,262.3 C25.8,266.0 25.0,270.2 24.4,273.3 C23.7,276.4 23.1,278.5 22.7,279.6 C22.3,280.7 22.1,281.1 22.0,280.9 C21.9,280.7 22.1,279.9 22.3,279.0" />
    <path
       style=""
       id="Path-12"
       fill="none"
       stroke="#000"
       stroke-width="1.0"
       d="M14.0,268.1 C14.0,268.1 13.2,268.8 13.0,269.5 C12.7,270.2 13.0,270.9 14.4,271.0 C15.8,271.2 17.7,271.0 19.8,270.5 C21.9,270.1 23.9,269.7 25.5,269.4 C27.1,269.1 27.1,269.1 27.1,269.1" />
    <path
       style=""
       id="Path-13"
       fill="none"
       stroke="#000"
       stroke-width="1.0"
       d="M35.4,274.6 C35.4,274.6 35.2,274.1 35.0,273.8 C34.7,273.5 34.4,273.1 33.7,273.0 C33.1,272.8 32.3,273.1 31.2,274.2 C30.0,275.2 29.1,276.9 28.4,278.5 C27.8,280.1 27.8,281.2 28.2,281.9 C28.7,282.5 29.9,282.0 31.6,280.0 C33.3,278.0 35.2,275.1 36.9,271.8 C38.6,268.4 40.0,265.2 41.1,262.0 C42.1,258.7 42.6,256.3 42.6,255.5 C42.6,254.7 41.8,255.0 40.7,257.0 C39.6,258.9 38.1,262.1 37.1,266.3 C36.2,270.4 35.7,273.8 35.8,275.8 C35.8,277.8 36.2,278.6 36.8,278.9 C37.5,279.1 38.3,278.8 38.8,278.2 C39.2,277.7 39.7,276.9 40.0,276.0 C40.2,275.2 40.4,274.4 40.4,273.8 C40.5,273.1 40.7,273.0 40.7,272.9 C40.7,272.8 40.7,273.5 40.5,274.4 C40.4,275.4 40.2,276.4 40.1,277.0 C40.0,277.7 40.0,278.1 40.5,278.2 C41.0,278.3 41.8,278.0 42.6,277.3 C43.4,276.5 44.2,275.7 44.8,275.0 C45.4,274.3 45.9,273.6 46.1,273.4 C46.4,273.1 46.5,273.1 46.6,273.5 C46.7,273.8 46.7,274.4 46.6,275.2 C46.5,276.0 46.2,276.9 46.0,277.4 C45.9,278.0 45.9,278.5 45.9,278.8 C45.9,279.1 46.2,279.3 47.0,279.2 C47.8,279.1 48.8,278.6 49.7,277.9 C50.6,277.2 51.5,276.5 52.3,276.0 C53.0,275.6 53.5,275.6 53.7,275.7 C53.9,275.9 54.1,276.5 54.1,277.7 C54.1,278.8 53.9,280.7 53.4,283.6 C52.8,286.4 51.8,289.8 50.6,292.5 C49.3,295.3 47.8,297.2 46.6,298.0 C45.4,298.8 44.4,299.0 43.8,298.0 C43.3,296.9 43.0,294.8 43.1,291.8 C43.3,288.8 44.6,285.7 46.2,283.9 C47.8,282.0 49.7,280.9 51.9,280.1 C54.1,279.3 56.4,278.6 58.7,278.3 C61.1,278.0 63.2,277.5 64.5,277.0 C65.8,276.5 66.4,276.2 66.5,275.8 C66.6,275.4 66.4,274.9 65.9,274.7 C64.9,274.3 64.9,274.3 64.9,274.3" />
    <path
       style=""
       id="Path-14"
       fill="none"
       stroke="#000"
       stroke-width="1.0"
       d="M43.6,264.2 C43.6,264.2 43.4,263.8 44.0,263.6 C44.6,263.4 45.5,263.4 46.3,263.8" />
    <path
       style=""
       id="Path-15"
       fill="none"
       stroke="#000"
       stroke-width="1.0"
       d="M31.8,142.0 C31.8,142.0 31.8,141.9 31.8,141.8 C31.8,141.6 31.8,141.5 31.8,141.4 C31.9,141.2 31.9,141.2 31.9,141.1 C31.9,141.0 31.9,141.0 31.9,141.2 C31.9,141.4 31.9,141.9 31.8,142.5 C31.8,143.1 31.7,143.9 31.7,144.8 C31.7,145.7 31.7,146.7 31.8,147.7 C31.8,148.7 31.9,149.6 31.9,150.5 C31.9,151.5 32.0,152.5 31.9,153.4 C31.9,154.4 31.8,155.3 31.8,156.2 C31.7,157.0 31.7,157.8 31.7,158.5 C31.7,159.2 31.7,159.8 31.6,160.3 C31.6,160.8 31.5,161.1 31.5,161.4 C31.5,161.7 31.3,161.9 31.3,162.0 C31.2,162.1 31.1,162.1 31.1,162.1 C31.1,162.2 31.0,162.2 31.0,162.2 C31.0,162.2 30.9,162.1 30.9,162.1 C30.9,162.0 30.9,161.9 30.9,161.9 C30.9,161.8 31.0,161.8 31.0,161.7 C31.1,161.7 31.1,161.7 31.1,161.7 C31.1,161.6 31.1,161.6 31.1,161.6 L31.1,161.6 L31.1,161.6 C31.1,161.6 31.1,161.5 31.1,161.5 C31.1,161.4 31.1,161.4 31.1,161.4 L31.1,161.4 C31.1,161.4 31.1,161.5 31.1,161.6 C31.0,161.8 30.9,161.9 30.7,162.1 C30.5,162.2 30.3,162.3 30.1,162.3 C29.9,162.4 29.8,162.4 29.6,162.3 C29.5,162.2 29.4,162.0 29.4,161.6 C29.4,161.3 29.6,160.9 29.9,160.4 C30.2,160.0 30.8,159.6 31.5,159.0 C32.2,158.5 32.9,157.9 33.9,157.1 C34.8,156.3 35.8,155.6 36.8,154.8 C37.8,154.0 38.8,153.2 39.8,152.4 C40.7,151.6 41.6,150.8 42.3,150.3 C43.0,149.8 43.4,149.4 43.6,149.2 C43.9,149.1 44.0,149.1 44.0,149.1 C44.0,149.1 43.9,149.1 43.8,149.2 C43.7,149.3 43.7,149.3 43.6,149.4 C43.6,149.4 43.5,149.4 43.5,149.4 C43.5,149.4 43.5,149.4 43.5,149.5 C43.5,149.5 43.4,149.5 43.4,149.6 C43.3,149.6 43.3,149.6 43.3,149.6 C43.3,149.6 43.3,149.6 43.3,149.6 L43.3,149.6 C43.3,149.6 43.3,149.6 43.2,149.6 C43.2,149.6 43.2,149.6 43.2,149.6 C43.1,149.6 43.1,149.6 43.1,149.6 C43.1,149.6 43.0,149.6 43.0,149.6 C42.9,149.6 42.8,149.6 42.7,149.5 C42.7,149.4 42.5,149.3 42.3,149.2 C42.1,149.1 41.9,149.0 41.5,148.8 C41.2,148.7 40.7,148.4 40.1,148.0 C39.4,147.5 38.8,147.0 38.1,146.3 C37.4,145.6 36.6,144.7 35.9,143.9 C35.3,143.1 34.7,142.3 34.0,141.8 C33.2,141.3 32.6,141.0 32.2,140.7 C31.7,140.5 31.3,140.3 31.2,140.3 C31.0,140.2 30.9,140.1 30.9,140.1 C30.9,140.1 30.9,140.1 31.0,140.2 C31.1,140.3 31.3,140.4 31.5,140.6 C31.7,140.8 32.0,140.8 32.0,140.8" />
    <path
       style=""
       id="Path-16"
       fill="none"
       stroke="#000"
       stroke-width="1.0"
       d="M44.7,140.5 L43.8,160.3" />
    <path
       style=""
       id="Path-17"
       fill="none"
       stroke="#000"
       stroke-width="1.0"
       d="M51.0,171.9 C51.0,171.9 50.8,171.9 50.8,171.8 C50.7,171.7 50.7,171.6 50.7,171.6 C50.6,171.6 50.8,171.6 51.1,171.5 C51.5,171.5 52.0,171.5 52.7,171.5 C53.4,171.6 54.2,171.6 55.1,171.7 C56.0,171.7 57.0,171.8 58.1,171.9 C59.2,171.9 60.5,171.9 61.8,171.9 C63.0,171.9 64.2,171.9 65.3,171.9 C66.5,171.9 67.3,171.9 68.0,171.8 C68.6,171.8 69.0,171.8 69.1,171.9 C69.3,171.9 69.3,172.0 69.4,172.1 C69.4,172.1 69.4,172.3 69.4,172.3 C69.3,172.4 69.3,172.4 69.3,172.4 C69.3,172.5 69.2,172.5 69.1,172.5 C69.1,172.5 69.0,172.5 68.9,172.6 C68.8,172.6 68.8,172.7 68.7,172.7 C68.6,172.7 68.4,172.8 68.4,172.9 C68.4,172.9 68.3,173.1 68.2,173.4 C68.2,173.6 68.1,174.2 67.9,175.1 C67.6,175.9 67.3,177.1 66.7,178.4 C66.1,179.7 65.6,180.8 65.1,181.8 C64.6,182.8 64.3,183.4 64.1,183.9 C63.9,184.4 63.8,184.7 63.7,184.9 C63.6,185.2 63.5,185.3 63.5,185.3 C63.5,185.4 63.5,185.4 63.5,185.4 C63.5,185.4 63.5,185.4 63.5,185.3 C63.5,185.3 63.4,185.2 63.3,185.2 C63.2,185.1 63.0,185.1 62.8,185.0 C62.5,184.9 62.2,184.9 61.9,184.7 C61.6,184.6 61.2,184.3 60.7,183.9 C60.3,183.5 59.6,183.0 58.9,182.3 C58.1,181.5 57.2,180.8 56.3,179.8 C55.4,178.8 54.6,177.9 53.9,177.0 C53.2,176.1 52.6,175.3 52.1,174.5 C51.6,173.8 51.2,173.3 50.9,173.0 C50.7,172.7 50.6,172.7 50.5,172.7 C50.5,172.7 50.6,172.9 50.7,173.2" />
    <path
       style=""
       id="Path-18"
       fill="none"
       stroke="#000"
       stroke-width="1.0"
       d="M49.3,186.9 L70.2,187.6" />
    <path
       style=""
       id="Path-19"
       fill="none"
       stroke="#000"
       stroke-width="1.0"
       d="M41.8,188.9 C41.8,188.9 41.8,188.8 41.7,188.6 C41.7,188.5 41.7,188.3 41.7,188.2 C41.7,188.1 41.7,188.1 41.7,188.1 C41.7,188.1 41.7,188.2 41.7,188.5 C41.7,188.9 41.7,189.6 41.8,190.7 C41.8,191.8 41.9,193.4 41.9,195.3 C41.9,197.2 41.8,199.1 41.8,200.8 C41.8,202.4 41.9,203.7 42.1,204.7 C42.4,205.7 42.6,206.6 42.7,207.4 C42.9,208.3 42.9,208.9 42.9,209.4 C42.9,209.8 42.9,210.2 42.9,210.3 C42.9,210.4 42.9,210.4 42.8,210.2 C42.7,210.0 42.7,209.8 42.6,209.7 C42.5,209.6 42.5,209.5 42.4,209.5 C42.3,209.4 42.2,209.4 42.2,209.4 C42.2,209.4 42.2,209.4 42.1,209.3 C42.1,209.2 42.1,209.0 42.1,209.0 C42.1,208.9 42.0,208.9 42.0,208.9 C42.0,208.9 42.0,208.9 42.1,208.9 C42.2,208.8 42.2,208.7 42.3,208.5 C42.5,208.4 42.6,208.3 42.6,208.1 C42.7,207.9 42.7,207.5 42.6,207.2 C42.5,206.8 42.2,206.3 41.9,205.8 C41.6,205.3 41.2,204.8 40.7,204.2 C40.2,203.6 39.6,202.9 38.8,202.2 C38.1,201.6 37.3,200.9 36.7,200.4 C36.0,199.9 35.4,199.4 34.9,198.9 C34.3,198.5 33.8,198.0 33.3,197.6 C32.8,197.2 32.5,196.9 32.3,196.8 C32.0,196.7 31.9,196.7 31.9,196.6 C31.8,196.6 31.8,196.6 31.8,196.6 C31.8,196.5 31.8,196.5 31.8,196.5 C31.8,196.5 31.8,196.5 31.8,196.5 L31.8,196.5 L31.8,196.5 L31.9,196.5 C31.9,196.5 31.9,196.5 31.9,196.5 C31.9,196.5 31.9,196.5 32.0,196.5 C32.1,196.5 32.2,196.5 32.5,196.3 C32.8,196.1 33.1,195.8 33.7,195.3 C34.3,194.8 35.0,194.2 36.0,193.3 C36.9,192.4 38.0,191.3 39.1,190.2 C40.2,189.1 41.2,188.2 41.8,187.7 C42.3,187.3 42.5,187.1 42.6,187.1 C42.7,187.1 42.6,187.1 42.3,187.2 C42.1,187.4 41.9,187.7 41.7,188.0 C41.4,188.4 41.2,188.7 41.1,189.0 C41.0,189.3 41.0,189.3 41.0,189.3" />
    <path
       style=""
       id="Path-20"
       fill="none"
       stroke="#000"
       stroke-width="1.0"
       d="M31.6,186.9 L30.4,207.5" />
    <path
       style=""
       id="Path-21"
       fill="none"
       stroke="#000"
       stroke-width="1.0"
       d="M6.6,167.2 L24.4,167.9" />
    <path
       style=""
       id="Path-22"
       fill="none"
       stroke="#000"
       stroke-width="1.0"
       d="M8.8,177.9 C8.8,177.9 8.6,178.0 8.6,178.0 C8.5,178.1 8.4,178.1 8.2,178.2 C8.1,178.3 8.0,178.4 7.9,178.5 C7.8,178.5 7.7,178.6 7.7,178.6 C7.6,178.6 7.6,178.7 7.6,178.7 C7.6,178.7 7.7,178.5 8.0,178.1 C8.4,177.7 8.8,177.2 9.3,176.5 C9.9,175.7 10.6,174.8 11.4,173.8 C12.2,172.9 13.1,171.9 13.9,170.9 C14.8,169.9 15.4,169.1 16.0,168.4 C16.5,167.8 16.9,167.5 17.1,167.4 C17.4,167.2 17.4,167.1 17.4,167.3 C17.4,167.4 17.2,167.6 17.0,167.9 C16.9,168.1 16.7,168.3 16.7,168.4 C16.7,168.4 16.6,168.4 16.6,168.4 C16.6,168.4 16.7,168.4 16.8,168.3 C16.9,168.2 16.9,168.2 16.9,168.2 C16.9,168.2 16.9,168.2 17.0,168.3 C17.0,168.3 17.1,168.4 17.2,168.6 C17.4,168.8 17.5,169.1 17.8,169.6 C18.0,170.1 18.4,170.9 19.0,171.9 C19.5,172.8 20.0,173.9 20.4,175.0 C20.7,176.2 20.9,177.4 21.0,178.4 C21.1,179.5 21.2,180.4 21.4,180.9 C21.5,181.4 21.7,181.7 21.9,181.8 C22.1,181.9 22.3,181.9 22.3,181.9 C22.4,181.9 22.4,181.9 22.4,181.9 C22.3,181.9 22.3,181.9 22.2,181.9 C22.1,181.9 22.1,181.9 22.0,181.8 C21.9,181.8 21.9,181.7 21.9,181.6 C21.9,181.5 21.8,181.5 21.7,181.4 C21.7,181.4 21.6,181.4 21.4,181.4 C21.3,181.3 21.2,181.3 21.1,181.3 C21.0,181.3 20.8,181.2 20.7,181.1 C20.6,181.1 20.4,181.0 20.2,180.9 C20.1,180.9 19.9,180.8 19.6,180.7 C19.4,180.7 19.1,180.5 18.7,180.5 C18.3,180.4 17.8,180.4 17.2,180.4 C16.6,180.3 15.9,180.2 15.1,180.2 C14.2,180.1 13.1,180.1 12.0,180.2 C10.9,180.4 10.0,180.5 9.2,180.4 C8.4,180.4 7.7,180.1 7.2,179.6 C6.7,179.2 6.4,178.6 6.3,178.2 C6.2,177.8 6.2,177.6 6.3,177.5" />
    <path
       style=""
       id="Path-23"
       fill="none"
       stroke="#000"
       stroke-width="1.0"
       d="M15.9,164.6 C15.9,164.6 15.9,164.6 15.9,164.6 C15.9,164.6 15.8,164.6 15.8,164.5 C15.8,164.4 15.8,164.3 15.8,164.1 C15.8,163.9 15.8,163.6 15.8,163.3 C15.8,163.0 15.9,162.5 15.9,161.9 C16.0,161.3 16.1,160.5 16.1,159.6 C16.1,158.8 16.1,157.9 16.1,157.1 C16.1,156.3 16.0,155.6 15.9,155.0 C15.9,154.4 15.8,153.9 15.8,153.5 C15.7,153.0 15.7,152.6 15.8,152.3 C15.8,152.0 15.9,151.7 15.9,151.6 C15.9,151.4 15.9,151.3 15.9,151.3 C15.9,151.2 15.9,151.1 15.9,151.1 L15.9,151.1 L15.9,151.1 L15.9,151.1 L15.9,151.1 C15.9,151.1 15.9,151.1 16.0,151.2 C16.0,151.2 16.1,151.3 16.2,151.4 C16.3,151.5 16.5,151.5 16.9,151.6 C17.2,151.7 17.7,151.8 18.3,151.9 C19.0,152.0 19.8,152.1 20.8,152.1 C21.8,152.1 22.8,152.1 23.7,152.0 C24.7,151.9 25.5,151.7 26.2,151.4 C26.8,151.1 27.2,150.9 27.6,150.8 C28.1,150.7 28.1,150.7 28.1,150.7" />
    <path
       style=""
       id="Path-24"
       fill="none"
       stroke="#000"
       stroke-width="1.0"
       d="M48.5,151.2 C48.5,151.2 48.5,151.1 48.5,151.1 C48.5,151.1 48.5,151.0 48.6,150.9 C48.7,150.8 48.9,150.6 49.1,150.6 C49.3,150.6 49.7,150.6 50.0,150.6 C50.4,150.6 50.8,150.6 51.5,150.5 C52.1,150.5 52.7,150.4 53.6,150.3 C54.4,150.2 55.3,150.0 56.3,149.9 C57.3,149.8 58.3,149.8 59.1,149.8 C59.9,149.8 60.7,149.9 61.2,150.0 C61.7,150.1 62.0,150.2 62.3,150.2 C62.6,150.3 62.7,150.4 62.8,150.4 C62.9,150.4 63.0,150.4 63.0,150.3 C63.1,150.2 63.2,150.1 63.2,150.1 C63.2,150.0 63.2,150.0 63.1,150.1 C63.0,150.1 62.8,150.2 62.7,150.2 C62.6,150.2 62.6,150.3 62.5,150.4 C62.4,150.4 62.3,150.6 62.2,150.8 C62.1,151.1 62.0,151.3 62.0,151.6 C61.9,151.9 61.8,152.2 61.8,152.6 C61.7,153.0 61.5,153.4 61.5,153.8 C61.4,154.2 61.3,154.7 61.1,155.1 C61.0,155.6 60.9,156.1 60.7,156.7 C60.6,157.3 60.5,157.9 60.4,158.6 C60.3,159.2 60.1,159.9 60.0,160.6 C59.9,161.4 59.8,162.3 59.7,163.3 C59.6,164.2 59.5,165.1 59.6,165.8 C59.6,166.5 59.8,167.1 60.1,167.6 C60.3,168.1 60.7,168.4 60.7,168.4" />
    <path
       style=""
       id="Path-25"
       fill="none"
       stroke="#000"
       stroke-width="1.0"
       d="M62.0,190.4 C62.0,190.4 62.0,190.3 62.0,190.3 C62.0,190.3 62.0,190.3 61.9,190.3 C61.9,190.3 61.8,190.3 61.8,190.3 C61.8,190.3 61.8,190.4 61.8,190.8 C61.8,191.3 61.8,192.0 61.8,192.9 C61.8,193.7 61.8,194.9 61.6,196.1 C61.4,197.3 61.1,198.6 60.9,199.8 C60.7,201.1 60.5,202.2 60.3,203.1 C60.2,204.0 60.2,204.6 60.2,205.0 C60.2,205.4 60.2,205.6 60.1,205.7 C60.1,205.9 60.1,206.0 60.1,206.0 C60.0,206.0 60.0,206.0 59.9,206.0 C59.8,206.0 59.8,206.0 59.8,205.9 C59.7,205.8 59.6,205.7 59.6,205.7 C59.5,205.6 59.4,205.5 59.3,205.4 C59.2,205.3 59.0,205.2 58.9,205.1 C58.7,204.9 58.5,204.7 58.4,204.5 C58.3,204.2 58.1,204.0 57.9,203.8 C57.7,203.6 57.4,203.4 57.0,203.1 C56.7,202.9 56.3,202.7 55.9,202.4 C55.5,202.2 55.1,201.9 54.6,201.6 C54.0,201.3 53.4,201.0 52.8,200.7 C52.2,200.4 51.6,200.2 50.8,200.1 C50.0,200.0 49.1,200.0 48.3,200.1 C47.5,200.1 46.9,200.2 46.5,200.2 C46.1,200.2 45.9,200.2 46.0,200.0 C46.0,199.8 46.0,199.8 46.0,199.8" />
    <path
       style=""
       id="Path-26"
       fill="none"
       stroke="#000"
       stroke-width="1.0"
       d="M14.1,184.1 C14.1,184.1 13.9,184.1 13.8,184.2 C13.7,184.2 13.7,184.3 13.7,184.6 C13.7,184.9 13.7,185.4 13.7,186.1 C13.7,186.9 13.7,187.8 13.7,189.1 C13.7,190.4 13.7,191.9 13.6,193.4 C13.5,195.0 13.4,196.3 13.3,197.3 C13.2,198.2 13.1,198.9 13.1,199.3 C13.1,199.6 13.1,199.7 13.1,199.7 C13.1,199.7 13.2,199.7 13.2,199.7 L13.2,199.7 L13.2,199.7 C13.2,199.7 13.2,199.7 13.2,199.6 C13.2,199.6 13.2,199.5 13.2,199.5 L13.2,199.5 L13.2,199.5 C13.2,199.5 13.2,199.5 13.2,199.4 C13.3,199.3 13.4,199.3 13.5,199.2 C13.6,199.2 13.8,199.1 14.0,199.0 C14.3,198.9 14.6,198.6 15.0,198.2 C15.4,197.9 15.8,197.5 16.2,197.2 C16.6,196.8 17.0,196.6 17.5,196.5 C17.9,196.3 18.3,196.2 18.8,196.0 C19.3,195.9 19.7,195.7 20.3,195.7 C20.8,195.6 21.4,195.6 22.1,195.8 C22.7,195.9 23.2,196.3 23.8,196.6 C24.3,197.0 24.8,197.4 25.2,197.6 C25.7,197.8 26.1,197.9 26.5,197.8 C27.0,197.8 27.0,197.8 27.0,197.8" />
    <path
       style=""
       id="Path-27"
       fill="none"
       stroke="#000"
       stroke-width="1.0"
       d="M18.5,288.6 C18.5,288.6 18.5,288.6 18.4,288.6" />
    <path
       style=""
       id="Path-28"
       fill="none"
       stroke="#000"
       stroke-width="1.0"
       d="M18.3,288.7 C18.3,288.7 18.3,288.7 18.3,288.6 C18.3,288.6 18.3,288.6 18.4,288.6 C18.5,288.6 18.6,288.6 18.8,288.6 C19.0,288.6 19.2,288.5 19.6,288.4 C19.9,288.3 20.4,288.2 21.0,288.1 C21.6,288.0 22.2,287.9 22.9,287.8 C23.6,287.7 24.3,287.7 25.0,287.7 C25.7,287.7 26.5,287.7 27.4,287.7 C28.2,287.7 29.2,287.7 30.3,287.7 C31.4,287.6 32.6,287.4 33.8,287.3 C35.1,287.1 36.3,287.0 37.5,286.8 C38.7,286.7 39.8,286.6 41.0,286.6 C42.1,286.6 43.3,286.6 44.5,286.8 C45.8,286.9 46.9,287.0 48.1,287.2 C49.2,287.3 50.3,287.4 51.4,287.7 C52.4,287.9 53.5,288.1 54.5,288.4 C55.4,288.7 56.3,289.0 57.1,289.3 C57.8,289.6 58.5,290.0 59.1,290.3 C59.7,290.6 60.2,290.9 60.6,291.2 C61.0,291.5 61.2,291.7 61.2,292.0 C61.3,292.2 61.3,292.5 61.0,292.7 C60.7,293.0 60.1,293.2 59.2,293.4 C58.4,293.6 57.4,293.8 56.1,294.0 C54.9,294.2 53.5,294.4 52.0,294.7 C50.5,295.0 49.0,295.3 47.4,295.6 C45.8,296.0 44.3,296.3 42.9,296.6 C41.5,296.9 40.2,297.3 39.1,297.5 C38.0,297.8 37.2,298.0 36.6,298.2 C35.9,298.4 35.4,298.6 34.8,298.9 C34.3,299.2 33.8,299.5 33.4,299.8 C32.9,300.1 32.6,300.4 32.3,300.7 C32.1,301.0 31.9,301.2 31.9,301.4 C31.9,301.6 32.1,301.7 32.4,301.8 C32.7,301.9 33.3,302.0 33.9,302.0 C34.6,302.1 35.3,302.2 35.9,302.3 C36.6,302.4 37.2,302.5 37.8,302.5 C38.4,302.5 38.9,302.5 39.4,302.6 C39.8,302.7 40.2,302.9 40.6,303.0 C41.1,303.2 41.3,303.4 41.6,303.6 C41.8,303.9 41.9,304.1 42.0,304.3 C42.0,304.5 42.0,304.7 41.8,304.9 C41.7,305.2 41.3,305.5 40.8,305.8 C40.4,306.2 39.8,306.6 39.1,307.1 C38.5,307.5 37.8,307.9 37.4,308.2 C37.0,308.5 36.8,308.6 36.7,308.7 C36.7,308.9 36.7,309.0 36.8,309.1 C36.8,309.1 37.0,309.2 37.1,309.3 C37.3,309.4 37.5,309.5 37.8,309.5 C38.1,309.5 38.5,309.6 38.7,309.7 C39.0,309.7 39.1,309.9 39.3,310.0 C39.5,310.1 39.6,310.2 39.7,310.4 C39.8,310.6 39.8,310.8 39.9,311.0 C39.9,311.2 39.9,311.4 39.8,311.7 C39.8,311.9 39.6,312.2 39.5,312.5 C39.4,312.8 39.3,313.0 39.3,313.1 C39.3,313.2 39.3,313.2 39.3,313.3 C39.3,313.3 39.3,313.4 39.3,313.5 C39.2,313.6 39.2,313.7 39.2,313.8 C39.1,313.9 39.1,314.0 39.1,314.1 C39.0,314.2 38.9,314.3 38.7,314.5 C38.5,314.7 38.4,314.9 38.3,315.1 C38.1,315.3 38.0,315.5 37.9,315.6 C37.8,315.8 37.7,316.0 37.7,316.1 C37.7,316.2 37.7,316.2 37.8,316.3 C37.8,316.4 37.9,316.5 38.0,316.5 C38.1,316.6 38.3,316.6 38.4,316.6 C38.5,316.6 38.5,316.6 38.6,316.7 C38.7,316.7 38.8,316.8 38.8,316.9 C38.8,317.0 38.8,317.2 38.8,317.3 C38.8,317.5 38.7,317.7 38.6,317.9 C38.5,318.1 38.3,318.2 38.3,318.3 C38.3,318.5 38.3,318.5 38.3,318.6 C38.3,318.8 38.3,318.8 38.4,318.9 C38.4,319.0 38.5,319.2 38.5,319.3 C38.5,319.4 38.5,319.5 38.5,319.6 C38.5,319.6 38.4,319.8 38.4,319.9 C38.4,320.0 38.4,320.0 38.4,320.1 C38.5,320.1 38.5,320.2 38.5,320.2 L38.5,320.2 C38.5,320.2 38.5,320.2 38.5,320.2 C38.5,320.3 38.5,320.3 38.5,320.3 L38.5,320.4 C38.5,320.4 38.5,320.4 38.5,320.5 C38.5,320.5 38.5,320.6 38.5,320.7 C38.5,320.8 38.5,320.9 38.5,321.0 C38.5,321.1 38.5,321.1 38.5,321.2 C38.5,321.2 38.5,321.2 38.5,321.2 C38.5,321.2 38.5,321.2 38.5,321.2 C38.5,321.2 38.5,321.2 38.5,321.2 L38.5,321.2 C38.5,321.2 38.6,321.2 38.6,321.3 C38.6,321.3 38.4,321.8 38.4,321.8" />
  </g>
</svg>
